<svg width="360" height="180" viewBox="0 0 360 180" fill="none" xmlns="http://www.w3.org/2000/svg" role="img" aria-labelledby="title desc">
  <title id="title">Zider Logo Loop preview</title>
  <desc id="desc">A single-row logo marquee preview with multiple brand-style marks.</desc>
  <rect width="360" height="180" rx="16" fill="#FFFFFF"/>
  <rect x="1" y="1" width="358" height="178" rx="15" stroke="#E6ECF4" stroke-width="2"/>
  <rect x="1" y="1" width="358" height="52" rx="15" fill="#F4F6FA"/>
  <rect x="1" y="128" width="358" height="51" rx="15" fill="#F4F6FA"/>
  <rect x="20" y="70" width="320" height="40" rx="12" fill="#FFFFFF"/>

  <g clip-path="url(#rowClip)">
    <g transform="translate(23 83)">
      <path d="M9 0v18M0 9h18M3 3l12 12M15 3 3 15" stroke="#E75E43" stroke-width="2.6" stroke-linecap="round"/>
    </g>

    <g transform="translate(48 82)">
      <circle cx="10" cy="10" r="9" fill="#00A3FF"/>
      <path d="M6 15 14 5" stroke="#FFFFFF" stroke-width="3" stroke-linecap="round"/>
      <path d="M14 5c5 3 4 10-1 13" stroke="#05C46B" stroke-width="3" stroke-linecap="round"/>
    </g>

    <g transform="translate(74 79)">
      <rect x="0" y="0" width="31" height="19" rx="3" fill="#FF7A1A"/>
      <text x="15.5" y="13.5" text-anchor="middle" fill="#FFFFFF" font-family="Arial, Helvetica, sans-serif" font-size="9" font-weight="700">duda</text>
    </g>

    <text x="114" y="94" fill="#111827" font-family="Arial, Helvetica, sans-serif" font-size="13" font-weight="700">OpenAI</text>

    <g transform="translate(165 80)">
      <rect x="0" y="0" width="8" height="8" fill="#F25022"/>
      <rect x="10" y="0" width="8" height="8" fill="#7FBA00"/>
      <rect x="0" y="10" width="8" height="8" fill="#00A4EF"/>
      <rect x="10" y="10" width="8" height="8" fill="#FFB900"/>
    </g>

    <text x="190" y="94" fill="#4285F4" font-family="Arial, Helvetica, sans-serif" font-size="12" font-weight="700">G</text>
    <text x="199" y="94" fill="#EA4335" font-family="Arial, Helvetica, sans-serif" font-size="12" font-weight="700">o</text>
    <text x="207" y="94" fill="#FBBC05" font-family="Arial, Helvetica, sans-serif" font-size="12" font-weight="700">o</text>
    <text x="215" y="94" fill="#4285F4" font-family="Arial, Helvetica, sans-serif" font-size="12" font-weight="700">g</text>
    <text x="223" y="94" fill="#34A853" font-family="Arial, Helvetica, sans-serif" font-size="12" font-weight="700">l</text>
    <text x="226" y="94" fill="#EA4335" font-family="Arial, Helvetica, sans-serif" font-size="12" font-weight="700">e</text>

    <g transform="translate(252 81)">
      <path d="M1 13c4-8 8-12 13-12 4 0 7 4 10 8 4-5 8-8 12-8 8 0 13 16 4 17-5 .6-10-3-16-9-5 6-10 10-15 9-6-.7-8-3-8-5Z" stroke="#116DFF" stroke-width="3" fill="none" stroke-linecap="round" stroke-linejoin="round"/>
    </g>
    <text x="296" y="94" fill="#111827" font-family="Arial, Helvetica, sans-serif" font-size="13" font-weight="700">Meta</text>

    <g transform="translate(334 83)">
      <path d="M9 0v18M0 9h18M3 3l12 12M15 3 3 15" stroke="#E75E43" stroke-width="2.6" stroke-linecap="round"/>
    </g>
  </g>

  <rect x="20" y="70" width="54" height="40" fill="url(#leftFade)"/>
  <rect x="286" y="70" width="54" height="40" fill="url(#rightFade)"/>

  <defs>
    <clipPath id="rowClip">
      <rect x="20" y="70" width="320" height="40" rx="12"/>
    </clipPath>
    <linearGradient id="leftFade" x1="20" y1="90" x2="74" y2="90" gradientUnits="userSpaceOnUse">
      <stop stop-color="#FFFFFF"/>
      <stop offset=".78" stop-color="#FFFFFF" stop-opacity="0"/>
    </linearGradient>
    <linearGradient id="rightFade" x1="340" y1="90" x2="286" y2="90" gradientUnits="userSpaceOnUse">
      <stop stop-color="#FFFFFF"/>
      <stop offset=".78" stop-color="#FFFFFF" stop-opacity="0"/>
    </linearGradient>
  </defs>
</svg>
