<svg xmlns="http://www.w3.org/2000/svg" width="1919" height="185" viewBox="0 0 1919 185" role="img" aria-labelledby="title desc">
  <title id="title">Zider Logo Loop preview</title>
  <desc id="desc">A horizontal logo loop preview with several sample brand marks.</desc>
  <rect width="1919" height="185" fill="#ffffff"/>

  <g transform="translate(72 92)" stroke="#dd7658" stroke-width="8" stroke-linecap="round">
    <line x1="0" y1="-48" x2="0" y2="48"/>
    <line x1="-48" y1="0" x2="48" y2="0"/>
    <line x1="-34" y1="-34" x2="34" y2="34"/>
    <line x1="34" y1="-34" x2="-34" y2="34"/>
    <line x1="-18" y1="-45" x2="18" y2="45"/>
    <line x1="18" y1="-45" x2="-18" y2="45"/>
    <line x1="-45" y1="-18" x2="45" y2="18"/>
    <line x1="45" y1="-18" x2="-45" y2="18"/>
  </g>

  <g transform="translate(202 92)">
    <defs>
      <linearGradient id="ringBlue" x1="18" y1="16" x2="80" y2="84" gradientUnits="userSpaceOnUse">
        <stop offset="0" stop-color="#00c8ff"/>
        <stop offset=".45" stop-color="#1b64f2"/>
        <stop offset="1" stop-color="#6d3df5"/>
      </linearGradient>
      <linearGradient id="ringGreen" x1="80" y1="16" x2="20" y2="82" gradientUnits="userSpaceOnUse">
        <stop offset="0" stop-color="#00d084"/>
        <stop offset=".5" stop-color="#00c8ff"/>
        <stop offset="1" stop-color="#69e66e"/>
      </linearGradient>
    </defs>
    <ellipse cx="50" cy="50" rx="34" ry="48" transform="rotate(38 50 50)" fill="none" stroke="url(#ringBlue)" stroke-width="21"/>
    <ellipse cx="50" cy="50" rx="34" ry="48" transform="rotate(-38 50 50)" fill="none" stroke="url(#ringGreen)" stroke-width="21"/>
    <ellipse cx="50" cy="50" rx="20" ry="31" fill="#fff"/>
  </g>

  <g transform="translate(315 36)">
    <rect width="184" height="78" rx="9" fill="#fb8128"/>
    <text x="92" y="55" text-anchor="middle" font-family="Arial, Helvetica, sans-serif" font-size="56" font-weight="700" fill="#fff">duda</text>
  </g>

  <text x="665" y="95" text-anchor="middle" font-family="Arial, Helvetica, sans-serif" font-size="74" font-weight="700" letter-spacing="0" fill="#050505">OpenAI</text>

  <g transform="translate(895 38)">
    <rect x="0" y="0" width="30" height="30" fill="#f25022"/>
    <rect x="36" y="0" width="30" height="30" fill="#7fba00"/>
    <rect x="0" y="36" width="30" height="30" fill="#00a4ef"/>
    <rect x="36" y="36" width="30" height="30" fill="#ffb900"/>
  </g>

  <g transform="translate(1032 34)" font-family="Arial, Helvetica, sans-serif" font-size="72" font-weight="700" letter-spacing="-1">
    <text x="0" y="62" fill="#4285f4">G</text>
    <text x="54" y="62" fill="#ea4335">o</text>
    <text x="96" y="62" fill="#fbbc05">o</text>
    <text x="139" y="62" fill="#4285f4">g</text>
    <text x="183" y="62" fill="#34a853">l</text>
    <text x="203" y="62" fill="#ea4335">e</text>
  </g>

  <g transform="translate(1345 45)">
    <path d="M4 50C28 2 62 2 96 50C130 98 164 98 188 50C164 2 130 2 96 50C62 98 28 98 4 50Z" fill="none" stroke="#0966e8" stroke-width="14" stroke-linecap="round" stroke-linejoin="round"/>
    <text x="240" y="54" font-family="Arial, Helvetica, sans-serif" font-size="72" font-weight="700" fill="#050505">Meta</text>
  </g>

  <g transform="translate(1820 92)" stroke="#dd7658" stroke-width="8" stroke-linecap="round">
    <line x1="0" y1="-48" x2="0" y2="48"/>
    <line x1="-48" y1="0" x2="48" y2="0"/>
    <line x1="-34" y1="-34" x2="34" y2="34"/>
    <line x1="34" y1="-34" x2="-34" y2="34"/>
    <line x1="-18" y1="-45" x2="18" y2="45"/>
    <line x1="18" y1="-45" x2="-18" y2="45"/>
    <line x1="-45" y1="-18" x2="45" y2="18"/>
    <line x1="45" y1="-18" x2="-45" y2="18"/>
  </g>
</svg>
