<svg xmlns="http://www.w3.org/2000/svg" width="1919" height="185" viewBox="0 0 1919 185" role="img" aria-labelledby="title desc">
  <title id="title">Zider Trusted Logo Rotator preview</title>
  <desc id="desc">A fixed-slot logo rotator preview with upward logo replacement motion.</desc>
  <rect width="1919" height="185" fill="#ffffff"/>

  <g transform="translate(150 48)">
    <text x="0" y="58" font-family="Georgia, 'Times New Roman', serif" font-size="34" font-weight="700" fill="#111111">Gates Foundation</text>
  </g>

  <g transform="translate(520 53)">
    <text x="0" y="50" font-family="Arial, Helvetica, sans-serif" font-size="34" font-weight="700" fill="#050505">jetBlue</text>
    <line x1="124" y1="12" x2="124" y2="62" stroke="#111111" stroke-width="2"/>
    <text x="144" y="50" font-family="Arial, Helvetica, sans-serif" font-size="26" font-weight="400" fill="#111111">travel products</text>
  </g>

  <g transform="translate(895 37)">
    <path d="M0 34L60 4L120 34V82H0V34Z" fill="#050505"/>
    <text x="60" y="67" text-anchor="middle" font-family="Arial Black, Arial, Helvetica, sans-serif" font-size="42" font-weight="900" fill="#ffffff">LOWE'S</text>
  </g>

  <g transform="translate(1235 42)">
    <circle cx="38" cy="40" r="28" fill="none" stroke="#111111" stroke-width="3"/>
    <circle cx="38" cy="40" r="18" fill="none" stroke="#111111" stroke-width="2"/>
    <text x="88" y="36" font-family="Georgia, 'Times New Roman', serif" font-size="21" font-weight="400" letter-spacing="2" fill="#111111">UNIVERSITY OF</text>
    <text x="88" y="72" font-family="Georgia, 'Times New Roman', serif" font-size="42" font-weight="500" fill="#111111">OXFORD</text>
  </g>

  <g transform="translate(1630 26)">
    <circle cx="64" cy="64" r="52" fill="none" stroke="#111111" stroke-width="6"/>
    <circle cx="64" cy="64" r="38" fill="none" stroke="#111111" stroke-width="2"/>
    <path d="M32 72H96L84 42H44L32 72Z" fill="#111111"/>
    <rect x="42" y="78" width="44" height="10" fill="#111111"/>
  </g>

  <g transform="translate(959 151)" fill="none" stroke="#676767" stroke-width="3" stroke-linecap="round" stroke-linejoin="round" opacity=".72">
    <path d="M0 18V0"/>
    <path d="M-9 9L0 18L9 9"/>
  </g>
</svg>
