<svg width="360" height="180" viewBox="0 0 360 180" fill="none" xmlns="http://www.w3.org/2000/svg" role="img" aria-labelledby="title desc">
  <title id="title">Zider Trusted Logo Rotator preview</title>
  <desc id="desc">A fixed-slot trusted logo rotator preview with upward logo replacement motion.</desc>
  <rect width="360" height="180" rx="16" fill="#FFFFFF"/>
  <rect x="1" y="1" width="358" height="178" rx="15" stroke="#E6ECF4" stroke-width="2"/>
  <rect x="24" y="55" width="312" height="70" rx="18" fill="#FFFFFF" stroke="#EDF1F6"/>

  <g transform="translate(38 72)">
    <path d="M0 26h36l-8-20H8L0 26Z" fill="#111827"/>
    <text x="46" y="25" font-family="Arial, Helvetica, sans-serif" font-size="14" font-weight="800" fill="#111827">Summit</text>
  </g>

  <g transform="translate(136 72)">
    <circle cx="17" cy="18" r="15" fill="none" stroke="#111827" stroke-width="4"/>
    <path d="M8 18h18" stroke="#111827" stroke-width="4" stroke-linecap="round"/>
    <text x="42" y="25" font-family="Georgia, 'Times New Roman', serif" font-size="15" font-weight="700" fill="#111827">Oxford</text>
  </g>

  <g transform="translate(244 72)">
    <rect x="0" y="6" width="30" height="24" rx="7" fill="#111827"/>
    <path d="M8 18h14" stroke="#FFFFFF" stroke-width="4" stroke-linecap="round"/>
    <text x="40" y="25" font-family="Arial, Helvetica, sans-serif" font-size="14" font-weight="800" fill="#111827">Ledger</text>
  </g>

  <g transform="translate(154 29)" opacity=".24">
    <path d="M0 25c12-18 28-18 40 0c12 18 28 18 40 0" stroke="#111827" stroke-width="6" stroke-linecap="round"/>
    <text x="94" y="29" font-family="Arial, Helvetica, sans-serif" font-size="14" font-weight="800" fill="#111827">Loop</text>
  </g>

  <g transform="translate(154 120)" opacity=".24">
    <path d="M0 25c12-18 28-18 40 0c12 18 28 18 40 0" stroke="#111827" stroke-width="6" stroke-linecap="round"/>
    <text x="94" y="29" font-family="Arial, Helvetica, sans-serif" font-size="14" font-weight="800" fill="#111827">Loop</text>
  </g>

  <g transform="translate(180 139)" fill="none" stroke="#7A8494" stroke-width="4" stroke-linecap="round" stroke-linejoin="round" opacity=".8">
    <path d="M0 14V0"/>
    <path d="M-7 7L0 14L7 7"/>
  </g>
</svg>
